<svg width="259" height="339" fill="none" xmlns="http://www.w3.org/2000/svg">
  <path d="M79.49 93.556c-32.87-.015-62.345 20.224-74.162 50.876-11.818 30.667-3.547 65.44 20.827 87.504 24.374 22.05 59.795 26.834 89.134 12.029v-70.933a35.798 35.798 0 01-22.095 33.067c-13.371 5.539-28.766 2.475-39.013-7.758-10.233-10.232-13.296-25.626-7.758-39.013a35.797 35.797 0 0133.067-22.095c19.756.03 35.769 16.028 35.799 35.784v-70.934a79.136 79.136 0 00-35.799-8.527z" fill="#45BCC8"/>
  <path d="M115.274 93.556V252.492h43.677V93.556h-43.677z" fill="#765EA6"/>
  <path d="M257.82 93.466h-77.242v43.677h77.242V93.466zm-64.58 0h-12.677v43.677h12.677V93.466z" fill="#45BCC8"/>
  <path d="M257.82 0h-21.839c-23.589.03-42.711 19.152-42.741 42.741v50.725h43.677V43.662h20.903V0zm-20.903 137.143H193.24v115.349h43.677V137.143z" fill="#FDC744"/>
  <path d="M258.71 294.705H0v43.752h258.71v-43.752z" fill="#E27CB0"/>
</svg>