<svg width="646" height="145" fill="none" xmlns="http://www.w3.org/2000/svg">
  <defs/>
  <path fill="#45BCC8" d="M46.3 53.9a46 46 0 00-42.9 29 45 45 0 0012 50 46.5 46.5 0 0051.6 6.8V99.2c0 8.3-5 15.8-12.8 19a21 21 0 01-22.5-4.5c-6-5.9-7.7-14.7-4.5-22.3a20.7 20.7 0 0119.1-12.6C57.8 78.8 67 88 67 99.2V58.7A46.4 46.4 0 0046.3 54z"/>
  <path fill="#765EA6" d="M67 53.9v90.7h25.3V53.9H67z"/>
  <path fill="#FCCE36" d="M132.8 53.9h-25v90.8-57a33.8 33.8 0 0125-32.6v-1.2"/>
  <path fill="#765EA6" d="M141.6 53.9c-3 0-6 .4-8.8 1.2v32.6a8.8 8.8 0 0115-6.3l17.7-17.6c-6.3-6.4-15-10-23.9-9.9z"/>
  <path fill="#E27CB0" d="M132.8 55c-14.7 4-25 17.4-25 32.7v57h25V55"/>
  <path fill="#45BCC8" d="M206 .5h-25V54h25V.5zm0 78.3h-25v41.4c0 13.5 11 24.4 24.4 24.4H218v-25h-12V78.9"/>
  <path fill="#FCCE36" d="M217.9 53.9h-12v25h12v-25zm-36.9 0h-7.2v25h7.2v-25z"/>
  <path fill="#FCCE36" d="M206 53.9h-25v25h25v-25z"/>
  <path fill="#E27CB0" d="M293.5 53.9H258a29 29 0 100 57.8h15a4 4 0 010 8h-35.4v24.9h35.7a28.9 28.9 0 00-.4-57.8h-14.9a4 4 0 010-8h35.4V54z"/>
  <path fill="#765EA6" d="M355.3 53.9h-44v25h44v-25zm-36.8 0h-7.3v25h7.3v-25z"/>
  <path fill="#FDC744" d="M355.3.6H343c-13.5 0-24.4 10.9-24.4 24.4v28.9h24.9V25.5h12V.5zm-12 78.2h-24.8v65.8h24.9V78.8z"/>
  <path fill="#45BCC8" d="M391.6.6h-25v144.2h25V.6z"/>
  <path fill="#FDC744" d="M451.4 54a45.3 45.3 0 100 90.6 45.3 45.3 0 000-90.7zm0 65.7a20.4 20.4 0 110-40.9 20.4 20.4 0 010 40.9z"/>
  <path fill="#765EA6" d="M565.9 53.9v51a15 15 0 01-29.9 0v-51h-24.9v51a39.8 39.8 0 0067.2 28.8c-8-7.5-12.4-18-12.4-28.9V54z"/>
  <path fill="#E27CB0" d="M645.5 53.9h-24.9v51a15 15 0 11-29.8 0v-51 51c0 10.8-4.5 21.3-12.5 28.8a39.8 39.8 0 0067.3-28.9V54"/>
  <path fill="#45BCC8" d="M590.8 53.9h-25v51c0 10.8 4.6 21.3 12.5 28.8 8-7.5 12.5-18 12.5-28.9V54"/>
</svg>