<svg width="250" height="57" fill="none" xmlns="http://www.w3.org/2000/svg"><g filter="url(#filter0_d)"><path d="M243.812 2.478H6.188a2.477 2.477 0 00-2.475 2.479v44.608a2.477 2.477 0 002.475 2.479h237.624a2.477 2.477 0 002.475-2.479V4.957a2.477 2.477 0 00-2.475-2.479z" fill="#fff"/><path d="M40.263 27.493c0-1.016-.082-1.757-.26-2.525h-11.58v4.583h6.797c-.137 1.139-.877 2.854-2.521 4.006l-.023.154 3.661 2.84.254.025c2.33-2.154 3.672-5.324 3.672-9.083z" fill="#4285F4"/><path d="M28.423 39.567c3.33 0 6.125-1.098 8.167-2.991l-3.892-3.019c-1.041.727-2.439 1.235-4.275 1.235-3.262 0-6.03-2.154-7.017-5.131l-.144.012-3.808 2.95-.05.139c2.029 4.033 6.195 6.805 11.019 6.805z" fill="#34A853"/><path d="M21.406 29.66a7.61 7.61 0 01-.411-2.442 8 8 0 01.397-2.442l-.007-.164-3.854-2.997-.127.06a12.372 12.372 0 00-1.315 5.543c0 1.99.48 3.87 1.316 5.543l4.001-3.1z" fill="#FBBC05"/><path d="M28.423 19.644c2.316 0 3.878 1.002 4.769 1.84l3.48-3.404c-2.137-1.99-4.92-3.21-8.25-3.21-4.823 0-8.99 2.771-11.018 6.805l3.988 3.101c1-2.977 3.77-5.132 7.03-5.132z" fill="#EB4335"/><path d="M75.951 28.915c-.114 1.214-.562 2.162-1.343 2.844-.782.677-1.82 1.015-3.118 1.015-.906 0-1.705-.213-2.398-.64-.688-.433-1.219-1.044-1.594-1.836s-.57-1.711-.586-2.758v-1.062c0-1.073.19-2.019.57-2.836.38-.818.925-1.448 1.633-1.891.714-.443 1.537-.664 2.47-.664 1.254 0 2.265.341 3.03 1.023.766.683 1.211 1.646 1.336 2.891h-1.968c-.094-.818-.334-1.406-.72-1.766-.38-.364-.94-.546-1.679-.546-.86 0-1.52.315-1.984.945-.459.625-.693 1.544-.703 2.758v1.007c0 1.23.218 2.167.656 2.813.443.646 1.088.969 1.938.969.775 0 1.359-.175 1.75-.524.39-.349.638-.93.742-1.742h1.968zm1.235-.601c0-.829.164-1.573.492-2.235.328-.666.789-1.177 1.383-1.531.593-.36 1.276-.54 2.047-.54 1.14 0 2.065.368 2.773 1.102.714.735 1.1 1.709 1.156 2.922l.008.446c0 .833-.161 1.578-.484 2.234a3.52 3.52 0 01-1.375 1.523c-.594.36-1.282.54-2.063.54-1.192 0-2.148-.396-2.867-1.188-.713-.797-1.07-1.857-1.07-3.18v-.093zm1.898.164c0 .87.18 1.552.54 2.046.359.49.859.735 1.5.735.64 0 1.137-.25 1.492-.75.359-.5.538-1.232.538-2.195 0-.855-.184-1.532-.554-2.032-.365-.5-.862-.75-1.492-.75-.62 0-1.112.248-1.477.742-.365.49-.547 1.224-.547 2.204zm9.328-4.313l.055.977c.625-.756 1.445-1.133 2.461-1.133 1.76 0 2.656 1.008 2.688 3.023v5.586h-1.899v-5.476c0-.537-.117-.933-.352-1.188-.229-.26-.606-.39-1.132-.39-.766 0-1.336.346-1.711 1.039v6.015h-1.899v-8.453h1.79zm9.524-2.055v2.055h1.492v1.406h-1.492v4.72c0 .322.062.556.187.702.13.14.36.211.688.211.218 0 .44-.026.664-.078v1.469a4.68 4.68 0 01-1.25.18c-1.459 0-2.188-.805-2.188-2.415v-4.789h-1.39v-1.406h1.39V22.11h1.899zm4.969 10.508h-1.899v-8.453h1.899v8.453zm-2.016-10.648c0-.292.091-.534.273-.727.188-.192.453-.289.797-.289.344 0 .61.096.797.29a.998.998 0 01.281.726.988.988 0 01-.281.719c-.187.187-.453.28-.797.28-.344 0-.609-.093-.797-.28a1.006 1.006 0 01-.273-.72zm5.851 2.195l.055.977c.625-.756 1.445-1.133 2.461-1.133 1.761 0 2.656 1.008 2.688 3.023v5.586h-1.899v-5.476c0-.537-.117-.933-.351-1.188-.23-.26-.607-.39-1.133-.39-.766 0-1.336.346-1.711 1.039v6.015h-1.899v-8.453h1.789zm12.266 7.625c-.557.656-1.349.984-2.375.984-.917 0-1.612-.268-2.086-.804-.469-.537-.703-1.313-.703-2.328v-5.477h1.898v5.453c0 1.073.446 1.61 1.336 1.61.922 0 1.545-.331 1.868-.993v-6.07h1.898v8.453h-1.789l-.047-.828zm7.492.984c-1.203 0-2.179-.377-2.929-1.132-.745-.76-1.118-1.771-1.118-3.032v-.234c0-.844.162-1.596.485-2.258.328-.666.786-1.185 1.375-1.554a3.624 3.624 0 011.969-.555c1.151 0 2.039.367 2.664 1.101.63.735.945 1.774.945 3.118v.765h-5.524c.058.698.29 1.25.696 1.656.411.407.927.61 1.547.61.869 0 1.578-.352 2.125-1.055l1.023.977a3.441 3.441 0 01-1.359 1.18c-.563.275-1.196.413-1.899.413zm-.226-7.242c-.521 0-.943.183-1.266.547-.318.365-.521.872-.609 1.524h3.617v-.141c-.042-.636-.211-1.115-.508-1.438-.297-.328-.708-.492-1.234-.492zm16.508 4.469l1.343-5.836h1.852l-2.305 8.453h-1.562l-1.813-5.805-1.781 5.805h-1.563l-2.312-8.453h1.851l1.368 5.774 1.734-5.774h1.43l1.758 5.836zm6.484 2.617h-1.899v-8.453h1.899v8.453zm-2.016-10.648c0-.292.091-.534.274-.727.187-.192.453-.289.797-.289.343 0 .609.096.796.29a.998.998 0 01.282.726.989.989 0 01-.282.719c-.187.187-.453.28-.796.28-.344 0-.61-.093-.797-.28a1.003 1.003 0 01-.274-.72zm6.469.14v2.055h1.492v1.406h-1.492v4.72c0 .322.063.556.188.702.13.14.359.211.687.211.219 0 .44-.026.664-.078v1.469c-.432.12-.849.18-1.25.18-1.458 0-2.187-.805-2.187-2.415v-4.789h-1.391v-1.406h1.391V22.11h1.898zm4.82 2.977c.62-.719 1.404-1.078 2.352-1.078 1.802 0 2.716 1.029 2.742 3.086v5.523h-1.898v-5.453c0-.583-.128-.995-.383-1.234-.25-.245-.62-.367-1.11-.367-.76 0-1.328.338-1.703 1.015v6.04h-1.898v-12h1.898v4.468zm19.907 6.055c-.412.536-.982.942-1.711 1.218-.73.276-1.558.414-2.485.414-.953 0-1.797-.216-2.531-.648-.734-.432-1.302-1.05-1.703-1.852-.396-.807-.602-1.747-.617-2.82v-.89c0-1.72.411-3.06 1.234-4.024.823-.969 1.971-1.453 3.445-1.453 1.266 0 2.271.312 3.016.937.745.625 1.193 1.526 1.344 2.704h-1.938c-.218-1.37-1.013-2.055-2.383-2.055-.885 0-1.559.32-2.023.96-.458.636-.695 1.571-.711 2.806v.875c0 1.229.258 2.184.774 2.867.52.677 1.242 1.015 2.164 1.015 1.01 0 1.729-.229 2.156-.687v-2.227h-2.344v-1.5h4.313v4.36zm1.632-2.828c0-.829.164-1.573.493-2.235.328-.666.789-1.177 1.382-1.531.594-.36 1.276-.54 2.047-.54 1.141 0 2.065.368 2.774 1.102.713.735 1.099 1.709 1.156 2.922l.008.446c0 .833-.162 1.578-.485 2.234a3.515 3.515 0 01-1.375 1.523c-.593.36-1.281.54-2.062.54-1.193 0-2.149-.396-2.867-1.188-.714-.797-1.071-1.857-1.071-3.18v-.093zm1.899.164c0 .87.18 1.552.539 2.046.359.49.859.735 1.5.735s1.138-.25 1.492-.75c.359-.5.539-1.232.539-2.195 0-.855-.185-1.532-.555-2.032-.364-.5-.862-.75-1.492-.75-.62 0-1.112.248-1.476.742-.365.49-.547 1.224-.547 2.204zm7.211-.165c0-.828.164-1.572.492-2.234.328-.666.789-1.177 1.383-1.531.594-.36 1.276-.54 2.047-.54 1.14 0 2.065.368 2.773 1.102.714.735 1.099 1.709 1.156 2.922l.008.446c0 .833-.161 1.578-.484 2.234a3.52 3.52 0 01-1.375 1.523c-.594.36-1.281.54-2.063.54-1.192 0-2.148-.396-2.867-1.188-.713-.797-1.07-1.857-1.07-3.18v-.093zm1.898.165c0 .87.18 1.552.539 2.046.36.49.86.735 1.5.735.641 0 1.138-.25 1.492-.75.36-.5.54-1.232.54-2.195 0-.855-.185-1.532-.555-2.032-.365-.5-.862-.75-1.492-.75-.62 0-1.112.248-1.477.742-.364.49-.547 1.224-.547 2.204zm7.235-.149c0-1.312.307-2.36.921-3.14.62-.787 1.441-1.18 2.461-1.18.964 0 1.722.336 2.274 1.008l.086-.852h1.711v8.195c0 1.11-.347 1.985-1.039 2.625-.688.641-1.618.961-2.789.961-.62 0-1.227-.13-1.821-.39-.588-.255-1.036-.591-1.343-1.008l.898-1.14c.583.692 1.302 1.038 2.156 1.038.63 0 1.128-.172 1.492-.515.365-.339.547-.839.547-1.5v-.57c-.547.609-1.276.913-2.187.913-.99 0-1.8-.393-2.43-1.18-.625-.786-.937-1.874-.937-3.265zm1.89.164c0 .85.172 1.518.516 2.008.349.484.831.727 1.445.727.766 0 1.333-.329 1.703-.985v-3.719c-.359-.64-.922-.96-1.687-.96-.625 0-1.112.247-1.461.742-.344.494-.516 1.224-.516 2.187zm9.539 4.125h-1.898v-12h1.898v12zm5.797.156c-1.203 0-2.18-.377-2.93-1.132-.744-.76-1.117-1.771-1.117-3.032v-.234c0-.844.162-1.596.485-2.258.328-.666.786-1.185 1.375-1.554a3.62 3.62 0 011.968-.555c1.151 0 2.039.367 2.664 1.101.631.735.946 1.774.946 3.118v.765h-5.524c.058.698.289 1.25.696 1.656.411.407.927.61 1.547.61.869 0 1.578-.352 2.125-1.055l1.023.977a3.448 3.448 0 01-1.359 1.18c-.563.275-1.196.413-1.899.413zm-.226-7.242c-.521 0-.943.183-1.266.547-.318.365-.521.872-.609 1.524h3.617v-.141c-.042-.636-.211-1.115-.508-1.438-.297-.328-.708-.492-1.234-.492z" fill="#757575"/></g><defs><filter id="filter0_d" x=".713" y=".478" width="248.574" height="55.565" filterUnits="userSpaceOnUse" color-interpolation-filters="sRGB"><feFlood flood-opacity="0" result="BackgroundImageFix"/><feColorMatrix in="SourceAlpha" values="0 0 0 0 0 0 0 0 0 0 0 0 0 0 0 0 0 0 127 0"/><feOffset dy="1"/><feGaussianBlur stdDeviation="1.5"/><feColorMatrix values="0 0 0 0 0 0 0 0 0 0 0 0 0 0 0 0 0 0 0.35 0"/><feBlend in2="BackgroundImageFix" result="effect1_dropShadow"/><feBlend in="SourceGraphic" in2="effect1_dropShadow" result="shape"/></filter></defs></svg>